<svg width="104" height="45" viewBox="0 0 104 45" fill="none" xmlns="http://www.w3.org/2000/svg">
<g clip-path="url(#clip0_1_12)">
<path d="M98.9038 24.4893C99.2548 24.4893 100.395 24.5028 101.178 24.6717L101.198 12.9124C100.537 12.8177 99.862 12.7637 99.2007 12.7637C97.5409 12.7637 96.1646 13.0475 95.1189 13.622C91.516 15.6157 90.632 17.4945 90.0856 22.9755L90.0721 23.1242H88.7024L88.7227 13.1354L77.0234 13.1151L76.9626 42.6691L88.9385 42.6963L88.9588 33.532C88.9723 27.8549 92.6898 24.4758 98.9038 24.4893Z" fill="white"/>
<path d="M73.4069 42.6558L73.4677 13.1017L58.3813 13.0747L58.361 21.8808L61.4713 21.8875L61.4309 42.6288L73.4069 42.6558Z" fill="white"/>
<path d="M47.2151 27.9631L47.2017 33.8564C47.2017 34.8701 46.3784 35.6946 45.3663 35.6946C44.3544 35.6946 43.5312 34.8701 43.5312 33.8564L43.5515 21.8401L54.3668 21.8604L54.3871 13.0881L43.5716 13.0678L43.5853 6.43115L32.3514 11.1755L32.311 32.0586C32.2975 39.1008 36.8584 43.1423 44.8333 43.1627C52.7612 43.1762 58.1047 38.7359 58.1115 32.1128L58.1181 27.9901L47.2151 27.9631Z" fill="white"/>
<path d="M74.1627 6.22178C74.2369 7.85729 73.036 9.01971 71.6258 9.58065C70.1753 10.1754 68.6436 10.3105 67.4427 10.3376C66.2483 10.3105 64.7169 10.1686 63.2595 9.58065C61.8494 9.01971 60.6484 7.85729 60.7226 6.22178C60.6484 4.58626 61.8494 3.42382 63.2595 2.86288C64.7101 2.26816 66.2417 2.13299 67.4427 2.10596C68.6368 2.13299 70.1684 2.27492 71.6258 2.86288C73.036 3.42382 74.2369 4.58626 74.1627 6.22178Z" fill="white"/>
<path d="M19.4445 24.6789L15.5245 23.7936C12.9404 23.1786 12.9404 21.3674 12.9404 21.3674C12.9404 18.5762 15.6325 18.5762 15.6325 18.5762C17.1168 18.5762 18.3245 19.8738 18.3245 21.3674H29.8552C29.5448 15.1497 24.4172 11.7368 15.3828 11.7233C9.91101 11.7098 5.62666 12.9735 3.00208 15.366C1.30858 16.9069 0.404485 18.9411 0.404485 21.2457C0.404485 25.6656 3.04257 28.646 8.49413 29.8423L15.2951 31.3358C15.2951 31.3358 15.2951 31.3358 15.3019 31.3358C16.5028 31.6264 17.9264 31.9104 17.9534 33.1607C17.9264 36.8642 12.5963 36.8507 12.5693 33.1607L-0.000335693 33.1403C0.0131583 39.6148 5.22184 43.19 14.6811 43.2035C20.1057 43.217 24.208 41.987 26.8661 39.5608C28.607 37.9726 29.4638 35.9722 29.4638 33.4444C29.4638 28.9503 26.5693 26.2671 19.4445 24.6789Z" fill="white"/>
</g>
<defs>
<clipPath id="clip0_1_12">
<rect width="104" height="45" fill="white"/>
</clipPath>
</defs>
</svg>
