<svg width="21" height="22" viewBox="0 0 21 22" fill="none" xmlns="http://www.w3.org/2000/svg">
<g clip-path="url(#clip0_1_23)">
<path d="M10.4972 5.35594C7.51584 5.35594 5.10976 7.87664 5.10976 11C5.10976 14.1234 7.51584 16.6441 10.4972 16.6441C13.4785 16.6441 15.8846 14.1234 15.8846 11C15.8846 7.87664 13.4785 5.35594 10.4972 5.35594ZM10.4972 14.6682C8.56916 14.6682 6.99575 13.0199 6.99575 11C6.99575 8.98013 8.56916 7.33176 10.4972 7.33176C12.4252 7.33176 13.9986 8.98013 13.9986 11C13.9986 13.0199 12.4252 14.6682 10.4972 14.6682ZM16.1052 3.80939C15.4092 3.80939 14.847 4.39828 14.847 5.12754C14.847 5.85677 15.4092 6.44567 16.1052 6.44567C16.8013 6.44567 17.3634 5.85952 17.3634 5.12754C17.3636 4.95438 17.3312 4.78287 17.2681 4.62284C17.2049 4.46283 17.1123 4.31743 16.9954 4.19498C16.8785 4.07253 16.7397 3.97544 16.587 3.90929C16.4342 3.84311 16.2705 3.80917 16.1052 3.80939ZM20.9988 11C20.9988 9.48097 21.012 7.9757 20.9305 6.45944C20.8491 4.69823 20.4656 3.13518 19.2363 1.84732C18.0044 0.556695 16.515 0.157674 14.8339 0.0723668C13.384 -0.0129408 11.9471 0.000818525 10.4998 0.000818525C9.04985 0.000818525 7.61303 -0.0129408 6.16571 0.0723668C4.48459 0.157674 2.99263 0.559447 1.76332 1.84732C0.53138 3.13795 0.150505 4.69823 0.0690761 6.45944C-0.0123524 7.97845 0.000781305 9.48372 0.000781305 11C0.000781305 12.5163 -0.0123524 14.0243 0.0690761 15.5406C0.150505 17.3018 0.534007 18.8648 1.76332 20.1527C2.99525 21.4433 4.48459 21.8423 6.16571 21.9276C7.61565 22.013 9.05247 21.9992 10.4998 21.9992C11.9498 21.9992 13.3866 22.013 14.8339 21.9276C16.515 21.8423 18.007 21.4406 19.2363 20.1527C20.4682 18.862 20.8491 17.3018 20.9305 15.5406C21.0145 14.0243 20.9988 12.519 20.9988 11ZM18.6873 17.4889C18.4956 17.9897 18.2644 18.364 17.894 18.7492C17.5237 19.1372 17.1691 19.3794 16.691 19.5803C15.3093 20.1554 12.0285 20.0261 10.4972 20.0261C8.9658 20.0261 5.68239 20.1554 4.30074 19.5831C3.82267 19.3822 3.46544 19.14 3.09769 18.752C2.72733 18.364 2.49617 17.9925 2.30441 17.4916C1.75806 16.0414 1.88152 12.6043 1.88152 11C1.88152 9.39567 1.75806 5.95584 2.30441 4.50837C2.49617 4.00752 2.72733 3.63328 3.09769 3.24801C3.46807 2.86275 3.82267 2.61785 4.30074 2.41694C5.68239 1.84456 8.9658 1.9739 10.4972 1.9739C12.0285 1.9739 15.312 1.84456 16.6936 2.41694C17.1717 2.61785 17.5289 2.86 17.8967 3.24801C18.267 3.63603 18.4982 4.00752 18.6899 4.50837C19.2363 5.95584 19.1128 9.39567 19.1128 11C19.1128 12.6043 19.2363 16.0414 18.6873 17.4889Z" fill="white"/>
</g>
<defs>
<clipPath id="clip0_1_23">
<rect width="21" height="22" fill="white"/>
</clipPath>
</defs>
</svg>
