<svg width="21" height="23" viewBox="0 0 21 23" fill="none" xmlns="http://www.w3.org/2000/svg">
<path d="M13.4502 9.444L10.7387 8.8193C8.95126 8.3854 8.95126 7.1074 8.95126 7.1074C8.95126 5.138 10.8134 5.138 10.8134 5.138C11.8401 5.138 12.6755 6.0536 12.6755 7.1074H20.6514C20.4367 2.72042 16.8898 0.31235 10.6407 0.30281C6.85579 0.29327 3.89226 1.18498 2.07681 2.87301C0.905394 3.9602 0.280019 5.3955 0.280019 7.0216C0.280019 10.1402 2.10481 12.243 5.87573 13.0871L10.58 14.1409C10.58 14.1409 10.58 14.1409 10.5847 14.1409C11.4154 14.3459 12.4002 14.5462 12.4188 15.4284C12.4002 18.0415 8.71325 18.032 8.69458 15.4284L0 15.4141C0.00933396 19.9823 3.61224 22.5048 10.1553 22.5143C13.9076 22.5239 16.7451 21.656 18.5839 19.9441C19.788 18.8235 20.3807 17.4121 20.3807 15.6287C20.3807 12.4576 18.3786 10.5645 13.4502 9.444Z" fill="#7352FF"/>
</svg>
