<svg width="21" height="20" viewBox="0 0 21 20" fill="none" xmlns="http://www.w3.org/2000/svg">
<path d="M21 2.35705C20.4152 3.37172 19.6978 4.23666 18.8477 4.95188C18.8561 5.14372 18.8602 5.36052 18.8602 5.60232C18.8602 6.94577 18.6924 8.29087 18.3565 9.63759C18.0207 10.9843 17.5077 12.2734 16.8176 13.5047C16.1274 14.7361 15.3054 15.827 14.3514 16.7774C13.3973 17.7278 12.2506 18.4856 10.911 19.0508C9.57148 19.616 8.13588 19.8986 6.60418 19.8986C4.21369 19.8986 2.01231 19.1458 0 17.6403C0.357162 17.6867 0.699709 17.7098 1.02764 17.7098C3.02469 17.7098 4.80837 16.9923 6.37871 15.5573C5.44757 15.5374 4.61366 15.203 3.877 14.5542C3.14032 13.9054 2.63336 13.0764 2.35612 12.0671C2.63015 12.128 2.90062 12.1584 3.16751 12.1584C3.55171 12.1584 3.92973 12.1 4.30162 11.9831C3.30792 11.7509 2.48356 11.1736 1.82854 10.2511C1.17355 9.32864 0.846054 8.26388 0.846054 7.05692V6.99473C1.45599 7.38865 2.10657 7.59821 2.79783 7.62337C2.20918 7.1656 1.74245 6.56864 1.39768 5.83249C1.05288 5.09637 0.88048 4.29975 0.88048 3.44263C0.88048 2.53868 1.07467 1.69691 1.46305 0.917346C2.54367 2.46422 3.85308 3.70055 5.39127 4.62628C6.92947 5.55204 8.57967 6.06618 10.3419 6.1687C10.2667 5.80333 10.2291 5.42205 10.2289 5.02485C10.2289 3.63797 10.6497 2.45376 11.4912 1.47226C12.3326 0.490754 13.3479 0 14.5368 0C15.7816 0 16.8301 0.528714 17.6823 1.58614C18.656 1.36116 19.5676 0.954245 20.4173 0.365378C20.09 1.56712 19.4592 2.49419 18.525 3.14656C19.3836 3.02754 20.2086 2.76437 21 2.35705H21Z" fill="white"/>
</svg>
